<svg xmlns="http://www.w3.org/2000/svg" width="640" height="420" viewBox="0 0 640 420" role="img" aria-label="Placeholder tecnologico">
  <defs>
    <linearGradient id="g" x1="0" x2="1" y1="0" y2="1">
      <stop offset="0%" stop-color="#e6f3ff" />
      <stop offset="100%" stop-color="#ffffff" />
    </linearGradient>
  </defs>
  <rect width="640" height="420" fill="url(#g)" />
  <rect x="36" y="36" width="568" height="348" rx="18" fill="#ffffff" stroke="#e2e6ed" />
  <rect x="70" y="80" width="220" height="14" rx="7" fill="#0090ee" />
  <rect x="70" y="112" width="160" height="10" rx="5" fill="#cdd8e6" />
  <rect x="70" y="154" width="500" height="12" rx="6" fill="#d9e1ec" />
  <rect x="70" y="184" width="440" height="12" rx="6" fill="#d9e1ec" />
  <rect x="70" y="214" width="380" height="12" rx="6" fill="#d9e1ec" />
  <rect x="70" y="262" width="180" height="56" rx="12" fill="#f1f4f8" stroke="#e2e6ed" />
  <rect x="270" y="262" width="180" height="56" rx="12" fill="#f1f4f8" stroke="#e2e6ed" />
  <rect x="470" y="262" width="100" height="56" rx="12" fill="#f1f4f8" stroke="#e2e6ed" />
  <circle cx="90" cy="300" r="6" fill="#0090ee" />
  <circle cx="110" cy="300" r="6" fill="#0090ee" />
  <circle cx="130" cy="300" r="6" fill="#0090ee" />
</svg>
